<svg xmlns="http://www.w3.org/2000/svg" xml:space="preserve" viewBox="0 0 786.37 788.25"><linearGradient id="a" x1="156.521" x2="158.662" y1="145.976" y2="696.108" gradientUnits="userSpaceOnUse"><stop offset=".058" style="stop-color:#006c99"/><stop offset="1" style="stop-color:#005476"/></linearGradient><path d="M217.59 299.45v192.04L97.67 560.74V230.21z" style="fill:url(#a)"/><linearGradient id="b" x1="488.224" x2="70.809" y1="65.118" y2="307.005" gradientUnits="userSpaceOnUse"><stop offset="0" style="stop-color:#00ceeb"/><stop offset=".972" style="stop-color:#00709d"/></linearGradient><path d="M382.71 57.31V195.8l-152.37 87.97-119.94-69.24z" style="fill:url(#b)"/><linearGradient id="c" x1="57.748" x2="637.849" y1="470.449" y2="806.522" gradientUnits="userSpaceOnUse"><stop offset="0" style="stop-color:#2c499e"/><stop offset="1" style="stop-color:#00384f"/></linearGradient><path d="M389.31 593.01V731.5L115.54 573.45l119.94-69.24z" style="fill:url(#c)"/><linearGradient id="d" x1="409.267" x2="679.39" y1="611.859" y2="611.859" gradientUnits="userSpaceOnUse"><stop offset=".113" style="stop-color:#8b66d1"/><stop offset="1" style="stop-color:#63627b"/></linearGradient><path d="M679.39 568.51 409.27 724.45V585.97l150.2-86.71h.02z" style="fill:url(#d)"/><linearGradient id="e" x1="689.691" x2="280.838" y1="318.857" y2="8.472" gradientUnits="userSpaceOnUse"><stop offset=".068" style="stop-color:#00709d"/><stop offset=".803" style="stop-color:#63627b"/></linearGradient><path d="m677.94 215.67-119.92 69.24-155.35-89.67V56.75z" style="fill:url(#e)"/><linearGradient id="f" x1="627.836" x2="629.977" y1="640.336" y2="133.016" gradientUnits="userSpaceOnUse"><stop offset=".078" style="stop-color:#3d5cbe"/><stop offset="1" style="stop-color:#63627b"/></linearGradient><path d="M688.7 232.51v318.3l-119.92-69.22V301.75z" style="fill:url(#f)"/><path d="M1328.05-817.63c-.48 1.11-.95 2.24-2.63 1.88l2.06-2.11q.32.09.57.23" style="fill:#bbbbbc"/><path d="M1328.05-817.63c-.48 1.11-.95 2.24-2.63 1.88l2.06-2.11q.32.09.57.23" style="fill:#c2c1c2"/><linearGradient id="g" x1="297.837" x2="430.385" y1="489.135" y2="240.609" gradientTransform="rotate(1.742 160.124 391.04)" gradientUnits="userSpaceOnUse"><stop offset=".048" style="stop-color:#9670d9"/><stop offset=".342" style="stop-color:#5e60c8"/><stop offset="1" style="stop-color:#00384f"/></linearGradient><path d="M508.78 311.87 391.44 524.46l-103.77-218.6 108.12 51.1z" style="fill:url(#g)"/></svg>